<?xml version="1.0"?><svg width="849.636" height="637.621" xmlns="http://www.w3.org/2000/svg">
 <defs>
  <pattern viewBox="2.125 -70.896 69 69" id="Polka_Dot_Pattern" patternUnits="userSpaceOnUse" height="69" width="69" y="599.364" x="2.647">
  </pattern>
 </defs>
 <g>
  <title>Layer 1</title>
  <g id="FreeVector.com_Buttons"/>
  <g id="FreeVector_Graphics">
   <g id="svg_281"/>
   <g id="svg_312">
    <g id="svg_313">
     <path id="svg_314" d="m260.671692,95.831039c10.039734,-4.212349 21.065002,-2.690918 31.609497,-2.941498c137.955261,0.029816 275.916443,0.059685 413.841858,0c10.370178,-0.322189 21.833984,2.559616 28.479065,11.7062c7.360107,9.427017 7.14978,23.06636 2.739685,33.925316c-27.319458,72.534302 -54.843201,145.00296 -82.132629,217.561127c-8.964294,25.08902 -33.928589,42.785583 -59.193298,41.866699c-69.533447,-0.10141 -139.030731,-0.065643 -208.558228,0c-25.559082,0.69812 -50.493256,-17.726318 -59.042999,-43.262817c-25.144501,-66.764679 -50.403229,-133.505585 -75.637741,-200.24646c-3.779175,-10.506958 -9.234787,-20.85878 -9.114487,-32.403862c0.059937,-11.395981 6.969376,-22.153511 17.009277,-26.204704z" fill="#FFFFFF"/>
     <path id="svg_315" d="m68.642189,205.220154c-0.594788,-16.008041 13.824944,-30.500565 29.939095,-30.202225c36.854614,-0.238663 73.703156,-0.029831 110.551697,-0.125275c7.173828,-0.328156 12.389053,5.626343 18.319199,8.818405c4.710419,3.669357 11.439621,5.888885 13.464447,12.010498c29.848877,69.992584 59.848114,139.925507 89.727081,209.924042c95.332794,0.029816 190.683685,0.089569 286.01651,-0.029785c10.214111,-0.238647 21.653748,-0.059631 29.608643,7.332703c13.704834,10.739746 14.479919,33.280975 1.640137,45.028961c-7.684509,8.072601 -19.394531,9.289764 -29.939087,8.722931c26.364197,14.051086 33.183594,52.868927 12.154724,74.342194c-18.799744,21.89093 -57.204468,20.232361 -73.943481,-3.281616c-18.02478,-22.099731 -9.919617,-57.743347 14.984741,-71.203674c-57.673157,0.20282 -115.310425,0.322174 -172.989349,-0.059753c25.619019,14.021271 33.18338,51.210205 13.464417,73.125c-18.535553,23.430298 -58.838745,22.219177 -75.697876,-2.511841c-17.424042,-22.189331 -9.174652,-57.301941 15.519165,-70.589264c-14.365631,0.507172 -28.749481,-0.35202 -43.07901,0.716003c-8.075043,-6.592987 -17.694336,-11.151337 -25.438995,-18.048584c-31.074585,-70.971039 -60.977585,-142.467255 -91.667694,-213.587479c-30.894394,-0.059692 -61.812958,0.059708 -92.707352,-0.059692c-16.222153,0.560852 -30.521797,-14.349335 -29.92701,-30.321548z" fill="#FFFFFF"/>
    </g>
   </g>
  </g>
 </g>
</svg>